HIERARCHY
ROOT pelvis
{
  OFFSET 0 100 0
  CHANNELS 6 Xposition Yposition Zposition Zrotation Xrotation Yrotation
  JOINT pelvis_right_femur
  {
    OFFSET -10.78128 -3.44521 -0.5502486
    CHANNELS 3 Zrotation Xrotation Yrotation
    JOINT right_femur_tibia
    {
      OFFSET -0.8047443 -44.0398 -0.1307829
      CHANNELS 3 Zrotation Xrotation Yrotation
      JOINT right_tibia_foot
      {
        OFFSET 3.006224 -47.83518 -5
        CHANNELS 3 Zrotation Xrotation Yrotation
        End Site
        {
          OFFSET 0 -5 15
        }
      }
    }
  }
  JOINT pelvis_left_femur
  {
    OFFSET 10.78128 -3.44521 -0.5502486
    CHANNELS 3 Zrotation Xrotation Yrotation
    JOINT left_femur_tibia
    {
      OFFSET 0.8047443 -44.0398 -0.1307829
      CHANNELS 3 Zrotation Xrotation Yrotation
      JOINT left_tibia_foot
      {
        OFFSET -4.370144 -48.10324 -4.275266
        CHANNELS 3 Zrotation Xrotation Yrotation
        End Site
        {
          OFFSET 0 -5 15
        }
      }
    }
  }
  JOINT pelvis_spine1
  {
    OFFSET 0 6.468898 -3.129235
    CHANNELS 3 Zrotation Xrotation Yrotation
    JOINT spine1
    {
      OFFSET 0 23.15396 4.99043
      CHANNELS 3 Zrotation Xrotation Yrotation
      JOINT spine2
      {
        OFFSET 0 20.79997 -5.064912
        CHANNELS 3 Zrotation Xrotation Yrotation
        JOINT neck
        {
          OFFSET 0 14.38658 9.616178
          CHANNELS 3 Zrotation Xrotation Yrotation
          End Site
          {
            OFFSET 0 20 0
          }
        }
      }
      JOINT right_manubrium
      {
        OFFSET -5.722621 16.35077 3.967754
        CHANNELS 3 Zrotation Xrotation Yrotation
        JOINT right_clavicle
        {
          OFFSET -13.16364 1.694482 -4.693211
          CHANNELS 3 Zrotation Xrotation Yrotation
          JOINT right_humerus
          {
            OFFSET -28.5034 -0.3100689 -2.792744
            CHANNELS 3 Zrotation Xrotation Yrotation
            JOINT right_radius
            {
              OFFSET -25.15693 0.02248979 -1.271978
              CHANNELS 3 Zrotation Xrotation Yrotation
              End Site
              {
                OFFSET -15 0 0
              }
            }
          }
        }
      }
      JOINT left_manubrium
      {
        OFFSET 5.722621 16.35077 3.967754
        CHANNELS 3 Zrotation Xrotation Yrotation
        JOINT left_clavicle
        {
          OFFSET 13.16364 1.694482 -4.693211
          CHANNELS 3 Zrotation Xrotation Yrotation
          JOINT left_humerus
          {
            OFFSET 29.39168 -1.063119 -2.237045
            CHANNELS 3 Zrotation Xrotation Yrotation
            JOINT left_radius
            {
              OFFSET 24.59957 -0.9528479 0.9047498
              CHANNELS 3 Zrotation Xrotation Yrotation
              End Site
              {
                OFFSET 15 -0 -0
              }
            }
          }
        }
      }
    }
  }
}
MOTION
Frames: 23
Frame Time: 0.0416666666667
877.4733 106.0124 2858.176 0.1295319 -1.66981 30.05131 6.198536 -7.623588 3.829103 -0 12.88976 -0 -9.147296 -8.907878 -1.545668 -3.859301 -6.037917 -9.026781 -0 67.58622 -0 -4.861212 -3.130602 10.78221 1.372101 -2.786911 9.046156 -0.6602843 17.93677 -6.492563 2.061967 20.91771 -0.2663435 -1.980361 -18.31588 4.368614 -5.753355 -31.5785 12.52244 95.37518 19.9022 -12.90301 -0 0 24.0248 -25.07781 13.98952 15.23819 -1.825725 -21.47698 -9.360657 -91.13299 14.17004 36.21209 0 0 -13.55986 2.13647 11.18888 10.43779
880.1973 107.3882 2862.694 1.39142 -1.853873 29.61485 4.90085 -3.120143 3.122074 -0 10.67085 -0 -8.275068 -9.484711 -0.9099155 -3.084845 -12.29432 -7.647156 -0 62.4997 -0 -4.378708 -4.402165 11.48965 1.394956 -2.904799 9.285391 -0.7087514 18.17732 -6.399279 2.064867 20.77876 -0.5409834 -2.218536 -18.0804 4.266317 -5.674009 -32.20158 12.55471 95.00034 19.78138 -12.23572 -0 0 25.12781 -25.14529 14.47135 15.71387 -2.165329 -21.18683 -9.499822 -91.56974 14.09342 37.45982 0 0 -13.00135 1.705833 11.00006 11.15512
882.8359 107.9013 2867.211 2.650106 -3.138248 29.19061 4.556152 2.624392 3.27362 -0 9.6668 -0 -6.687541 -10.45327 -1.475059 -1.567929 -17.12383 -5.946602 -0 54.2099 -0 -4.199595 -4.933829 14.50768 1.53124 -3.096194 9.527118 -0.7172458 18.61673 -6.365765 2.114287 20.58837 -0.91099 -2.497773 -17.74216 4.133594 -5.60274 -32.87376 12.64455 94.77365 19.26484 -11.76372 -0 0 26.22866 -25.16308 15.19523 16.09133 -2.544802 -21.07817 -9.820923 -91.96963 13.85445 38.61064 0 0 -12.65998 1.299141 10.96136 11.84367
885.4467 107.6822 2871.706 3.433764 -4.605916 28.70295 4.716204 7.65206 3.379833 -0 9.329599 -0 -5.652166 -12.07791 -2.062885 0.07206177 -20.45132 -4.514282 -0 44.47097 -0 -4.326755 -5.505329 17.47512 1.677596 -3.290289 9.750828 -0.6855212 19.03625 -6.365615 2.144818 20.34456 -1.285125 -2.787384 -17.41628 3.991741 -5.459997 -33.56362 12.76273 94.46036 18.74104 -11.27232 -0 0 27.46046 -25.10088 16.02299 16.44906 -2.89451 -20.9547 -10.08817 -92.37028 13.54478 39.77273 0 0 -12.30895 0.9389817 10.98265 12.4339
888.1296 106.9566 2876.227 3.454003 -5.239346 28.11095 4.853541 11.46208 3.13463 -0 8.998557 -0 -5.170126 -14.08986 -1.981926 1.417978 -23.25196 -3.498576 -0 34.63364 -0 -4.321595 -5.931309 19.3067 1.778094 -3.432524 9.946295 -0.6289157 19.30105 -6.377832 2.122661 20.06535 -1.620028 -3.080834 -17.15682 3.851486 -5.252384 -34.23763 12.87309 93.99808 18.44668 -10.67587 -0 0 28.81822 -24.94118 16.81215 16.81369 -3.187928 -20.71307 -10.18443 -92.71686 13.21883 40.94803 0 0 -11.95146 0.647344 10.98968 12.89586
890.9737 105.9079 2880.853 2.914538 -5.07965 27.44116 4.794686 14.45226 2.664548 -0 8.947463 -0 -4.883086 -16.09529 -1.346034 2.317752 -25.6755 -2.921483 -0 25.59619 -0 -4.192714 -6.101431 20.19014 1.765377 -3.469708 10.07469 -0.5872904 19.26908 -6.345603 2.032655 19.82557 -1.809028 -3.318544 -17.06321 3.762063 -5.039235 -34.76045 12.90638 93.40772 18.56426 -9.960875 -0 0 30.04941 -24.71501 17.3127 17.18736 -3.358454 -20.31721 -10.03317 -92.95503 13.00665 41.97461 0 0 -11.67927 0.4677923 10.90059 13.22531
894.0609 104.7311 2885.701 2.187949 -4.47236 26.74711 4.410152 16.90031 2.136819 -0 9.712663 -0 -4.498028 -17.40557 -0.4582397 2.529552 -27.30618 -2.910837 -0 18.41018 -0 -4.146471 -6.175291 20.49286 1.597737 -3.383689 10.11514 -0.6034401 18.87632 -6.210291 1.885128 19.71082 -1.765431 -3.435721 -17.20689 3.77003 -4.894673 -35.01385 12.80479 92.73773 19.15818 -9.137685 -0 0 30.8836 -24.49992 17.31717 17.56606 -3.355471 -19.78754 -9.627387 -93.08785 13.02216 42.70775 0 0 -11.5159 0.4408169 10.68018 13.42127
897.4506 103.6117 2890.902 1.726622 -3.849026 26.08895 3.576276 18.89738 1.678481 -0 11.87014 -0 -4.038274 -17.01555 0.361558 1.814062 -27.64078 -3.608695 -0 14.05953 -0 -4.221228 -6.397402 20.57171 1.302312 -3.212571 10.08571 -0.6844454 18.21543 -5.969345 1.715102 19.74825 -1.502421 -3.410942 -17.55371 3.877007 -4.842666 -34.98561 12.58132 92.04752 20.09341 -8.266949 -0 0 31.22857 -24.37025 16.84468 17.92757 -3.193972 -19.20828 -9.060716 -93.16821 13.27153 43.10958 0 0 -11.40128 0.5534389 10.36897 13.49717
901.146 102.7261 2896.504 1.903776 -3.582875 25.55707 2.283779 20.28516 1.411683 -0 16.07203 -0 -3.90101 -13.85052 0.8389634 0.2009337 -26.34951 -4.953357 -0 12.92708 -0 -4.030828 -6.837415 20.63317 0.9525747 -3.017169 10.02163 -0.800223 17.46677 -5.676932 1.558862 19.89588 -1.114583 -3.274583 -17.99299 4.043702 -4.848122 -34.75812 12.30751 91.39638 21.13031 -7.445802 -0 0 31.18543 -24.3468 16.10502 18.2371 -2.941243 -18.67656 -8.46681 -93.24725 13.66882 43.23749 0 0 -11.2651 0.738009 10.03887 13.48885
905.0871 102.305 2902.407 2.724028 -3.711873 25.30308 0.7518008 20.60965 1.493624 -0 23.01216 -0 -4.327626 -7.591696 0.9191014 -1.863553 -23.5709 -6.526465 -0 14.39798 -0 -3.03634 -7.304727 20.59535 0.6230738 -2.842677 9.952566 -0.9133205 16.79128 -5.402309 1.436532 20.08443 -0.7142937 -3.087233 -18.41086 4.218856 -4.866473 -34.44791 12.05726 90.84416 22.06434 -6.769303 -0 0 30.93454 -24.39807 15.33692 18.46711 -2.676328 -18.25507 -7.951081 -93.33586 14.09989 43.19163 0 0 -11.09228 0.9212927 9.746968 13.43815
909.1438 102.5905 2908.368 3.779093 -4.038962 25.48161 -0.5119633 19.2031 1.873265 -0 32.73145 -0 -5.055956 0.3760022 0.7006576 -3.779857 -19.77833 -7.821671 -0 17.04238 -0 -1.29496 -7.711823 20.32486 0.3621261 -2.709809 9.894315 -1.000497 16.28184 -5.194625 1.35334 20.25966 -0.3818711 -2.905077 -18.73654 4.364308 -4.876893 -34.14887 11.87317 90.44329 22.78319 -6.302773 -0 0 30.62168 -24.48136 14.69779 18.60766 -2.456521 -17.96801 -7.56913 -93.41716 14.47641 43.061 0 0 -10.9092 1.059564 9.523077 13.37376
913.1282 103.6035 2914.095 4.551491 -4.497668 26.118 -0.9654875 15.51342 2.208843 -0 43.27508 -0 -5.571971 7.166683 0.1400565 -5.076211 -15.41841 -8.562854 -0 19.102 -0 0.3938766 -8.272203 19.90909 0.1975159 -2.626006 9.855429 -1.052024 15.98489 -5.082942 1.308756 20.38938 -0.1676815 -2.770396 -18.93265 4.455739 -4.88153 -33.92567 11.77303 90.23992 23.237 -6.088506 -0 0 30.33792 -24.565 14.26914 18.65846 -2.318631 -17.82176 -7.347397 -93.46523 14.73914 42.91049 0 0 -10.75281 1.136173 9.382053 13.30691
916.895 104.9911 2919.41 4.844337 -5.164784 27.06497 -0.6066071 9.757903 2.268561 -0 50.7953 -0 -5.61115 10.56847 -0.8905769 -5.566758 -10.75183 -8.767583 -0 19.37552 -0 1.327425 -9.197109 19.47925 0.1434221 -2.591832 9.843645 -1.066534 15.91859 -5.083586 1.30021 20.45944 -0.1025159 -2.712292 -18.98023 4.478015 -4.895216 -33.81946 11.76045 90.26911 23.41829 -6.150591 -0 0 30.13278 -24.63105 14.07831 18.62054 -2.285804 -17.81368 -7.2947 -93.45206 14.85167 42.78304 0 0 -10.65281 1.153558 9.33136 13.23052
920.421 106.2494 2924.334 4.84247 -5.926537 28.10087 0.01405652 3.170006 2.047717 -0 52.60581 -0 -5.463247 10.83958 -2.174235 -5.459043 -6.044168 -8.670558 -0 17.97436 -0 1.487963 -10.49906 18.98735 0.190164 -2.597463 9.85866 -1.050484 16.0534 -5.190056 1.322523 20.47949 -0.1765858 -2.72857 -18.89339 4.434876 -4.93191 -33.82111 11.82215 90.52442 23.37417 -6.472922 -0 0 29.99227 -24.6804 14.08169 18.49549 -2.34917 -17.92699 -7.387088 -93.36267 14.82235 42.67245 0 0 -10.61068 1.133399 9.365809 13.11901
923.7563 107.0378 2929.004 4.770974 -6.520774 29.05684 0.4382094 -2.899132 1.541741 -0 49.23727 -0 -5.50223 9.542205 -3.294111 -5.146446 -1.654939 -8.531347 -0 15.8131 -0 1.165721 -12.08158 18.37902 0.3064774 -2.624811 9.88458 -1.014918 16.31402 -5.36987 1.369493 20.47686 -0.3341582 -2.781425 -18.72344 4.352113 -4.995422 -33.86574 11.92999 90.95102 23.18166 -6.996136 -0 0 29.84063 -24.72711 14.18321 18.28653 -2.460528 -18.13581 -7.570445 -93.20415 14.70269 42.51423 0 0 -10.6062 1.111286 9.471622 12.94009
926.9552 107.2389 2933.558 4.713891 -6.800082 29.85424 0.5576262 -7.852472 0.7384404 -0 42.80655 -0 -5.775446 7.797478 -4.03455 -4.904825 2.198509 -8.489061 -0 13.63935 -0 0.5686108 -13.83817 17.69891 0.4591773 -2.656882 9.897821 -0.969292 16.61922 -5.582854 1.435286 20.47661 -0.5080783 -2.825538 -18.5316 4.261435 -5.081459 -33.87711 12.05438 91.47932 22.90343 -7.648739 -0 0 29.59491 -24.78023 14.29418 18.00007 -2.560922 -18.41695 -7.789542 -92.99329 14.54766 42.23113 0 0 -10.63167 1.12301 9.63739 12.67188
930.0501 106.8755 2938.08 4.647054 -6.734605 30.47305 0.454134 -11.79046 -0.3261382 -0 35.1197 -0 -6.187468 6.073196 -4.358124 -4.837087 5.532442 -8.58765 -0 11.7842 -0 -0.1601568 -15.6915 17.00134 0.6291891 -2.684352 9.882474 -0.9178463 16.91918 -5.802658 1.514936 20.4894 -0.6580818 -2.837259 -18.35666 4.182215 -5.185311 -33.8133 12.17691 92.06146 22.56922 -8.380278 -0 0 29.21483 -24.83415 14.37198 17.64328 -2.615116 -18.75554 -8.012776 -92.7393 14.38335 41.7822 0 0 -10.70618 1.192597 9.858753 12.3078
933.0526 106.037 2942.597 4.500267 -6.316382 30.9224 0.252047 -15.08555 -1.570006 -0 27.26493 -0 -6.658521 4.510319 -4.275874 -4.954454 8.460256 -8.844381 -0 10.35226 -0 -0.85991 -17.57976 16.32088 0.8137302 -2.706092 9.836185 -0.8605027 17.20231 -6.020922 1.605897 20.51407 -0.7793394 -2.818645 -18.20615 4.118029 -5.307248 -33.67393 12.29183 92.67981 22.17841 -9.167156 -0 0 28.70699 -24.87474 14.41617 17.22061 -2.619003 -19.14468 -8.235499 -92.44121 14.20526 41.16976 0 0 -10.86031 1.330665 10.13803 11.84974
935.9637 104.8492 2947.107 4.196143 -5.526151 31.23134 0.07734784 -18.1132 -2.850549 -0 19.94285 -0 -7.11703 3.154753 -3.810309 -5.237454 11.05564 -9.265135 -0 9.417568 -0 -1.283185 -19.3912 15.72457 1.019054 -2.726363 9.76614 -0.7960728 17.48058 -6.237736 1.70886 20.54583 -0.8878386 -2.785034 -18.06767 4.063935 -5.452584 -33.48167 12.40001 93.3338 21.7114 -9.998045 -0 0 28.10136 -24.88941 14.44578 16.73488 -2.587128 -19.58218 -8.470412 -92.09623 13.99446 40.42062 0 0 -11.12023 1.53829 10.4803 11.30473
938.7932 103.4691 2951.601 3.664181 -4.368294 31.44983 0.08243056 -21.18417 -3.924117 -0 13.84868 -0 -7.479345 2.123171 -3.012947 -5.641346 13.29723 -9.812629 -0 9.132457 -0 -1.042745 -20.88415 15.36002 1.253347 -2.752613 9.683952 -0.7249467 17.77635 -6.452575 1.827382 20.58155 -1.005147 -2.753573 -17.92087 4.013272 -5.628831 -33.26454 12.50397 94.02785 21.13932 -10.86261 -0 0 27.42888 -24.87337 14.48366 16.1914 -2.541194 -20.06915 -8.740437 -91.7064 13.73263 39.56918 0 0 -11.50659 1.807852 10.88729 10.69129
941.5848 102.0756 2956.108 2.860238 -2.95634 31.64946 0.4636067 -24.51945 -4.473544 -0 9.709812 -0 -7.676106 1.702444 -1.999028 -6.071996 15.10136 -10.3506 -0 9.751706 -0 0.2487031 -21.68471 15.38862 1.518641 -2.793282 9.600413 -0.6511115 18.10934 -6.65824 1.965221 20.62255 -1.143049 -2.733038 -17.74966 3.963343 -5.839688 -33.03957 12.60414 94.76161 20.4402 -11.74711 -0 0 26.70153 -24.83319 14.54436 15.60482 -2.500148 -20.60854 -9.070968 -91.28209 13.41762 38.64352 0 0 -12.04221 2.12061 11.34718 10.05162
944.4375 100.8302 2960.742 1.810199 -1.569296 31.91118 1.38166 -28.13019 -4.3222 -0 7.780245 -0 -7.691152 2.293115 -0.955957 -6.382775 16.44873 -10.60644 -0 11.57199 -0 2.429529 -21.50823 15.68276 1.796798 -2.852319 9.516981 -0.5829415 18.47079 -6.837299 2.11846 20.6759 -1.281234 -2.711584 -17.56421 3.922619 -6.073524 -32.79408 12.69424 95.51253 19.63795 -12.62926 -0 0 25.89754 -24.78696 14.61574 15.0096 -2.464375 -21.19577 -9.466795 -90.84544 13.08471 37.65393 0 0 -12.75008 2.446782 11.81969 9.456847
947.4986 99.83224 2965.711 0.6448104 -0.5253647 32.29158 2.770243 -31.62462 -3.685625 -0 7.234419 -0 -7.484418 4.125974 -0.107642 -6.441426 17.48877 -10.24545 -0 14.83361 -0 4.262505 -20.52652 15.56666 2.044849 -2.92309 9.421843 -0.5297593 18.80589 -6.968795 2.268488 20.74916 -1.363674 -2.658697 -17.41258 3.910615 -6.298077 -32.49095 12.76069 96.22513 18.83089 -13.47349 -0 0 24.98683 -24.7547 14.65452 14.46102 -2.408474 -21.80263 -9.886091 -90.4297 12.80685 36.60635 0 0 -13.62139 2.753887 12.23758 8.982811
